<?xml version="1.0" encoding="UTF-8" standalone="no"?>
<!-- Created with Inkscape (http://www.inkscape.org/) -->

<svg
   xmlns:dc="http://purl.org/dc/elements/1.1/"
   xmlns:cc="http://creativecommons.org/ns#"
   xmlns:rdf="http://www.w3.org/1999/02/22-rdf-syntax-ns#"
   xmlns:svg="http://www.w3.org/2000/svg"
   xmlns="http://www.w3.org/2000/svg"
   xmlns:xlink="http://www.w3.org/1999/xlink"
   xmlns:sodipodi="http://sodipodi.sourceforge.net/DTD/sodipodi-0.dtd"
   xmlns:inkscape="http://www.inkscape.org/namespaces/inkscape"
   width="300"
   height="510"
   id="svg2"
   version="1.1"
   inkscape:version="0.48.4 r9939"
   sodipodi:docname="drawing.svg"
   inkscape:export-filename="/home/max/Desktop/drawing.png"
   inkscape:export-xdpi="90"
   inkscape:export-ydpi="90">
  <defs
     id="defs4" />
  <sodipodi:namedview
     id="base"
     pagecolor="#ffffff"
     bordercolor="#666666"
     borderopacity="1.0"
     inkscape:pageopacity="0.0"
     inkscape:pageshadow="2"
     inkscape:zoom="0.64789644"
     inkscape:cx="520.99004"
     inkscape:cy="428.75936"
     inkscape:document-units="px"
     inkscape:current-layer="layer1"
     showgrid="false"
     inkscape:window-width="1309"
     inkscape:window-height="744"
     inkscape:window-x="57"
     inkscape:window-y="24"
     inkscape:window-maximized="1" />
  <metadata
     id="metadata7">
    <rdf:RDF>
      <cc:Work
         rdf:about="">
        <dc:format>image/svg+xml</dc:format>
        <dc:type
           rdf:resource="http://purl.org/dc/dcmitype/StillImage" />
        <dc:title></dc:title>
      </cc:Work>
    </rdf:RDF>
  </metadata>
  <g
     inkscape:label="Layer 1"
     inkscape:groupmode="layer"
     id="layer1"
     transform="translate(0,-542.36218)">
    <g
       id="g3077"
       transform="matrix(1.4278877,0,0,1.4278877,-215.53817,453.64985)"
       style="opacity:0.1">
      <path
         id="path4"
         d="m 116.44046,324.61069 c -1.84859,2.32011 -3.6966,4.64023 -5.54519,6.96035 -0.12928,0.16218 -0.25741,0.32435 -0.38784,0.4848 -0.22855,0.28915 0.42824,0.55232 0.63774,0.72951 1.4267,1.2045 2.80607,2.46729 4.1133,3.80049 2.15564,2.20007 4.17044,4.60849 5.6537,7.31991 1.07003,1.95594 1.92305,4.18083 1.82897,6.44612 -0.0791,1.89245 -0.9292,3.55405 -2.28433,4.85666 -1.68353,1.61831 -3.8761,2.65659 -6.06001,3.4138 -2.97575,1.03194 -6.11368,1.57387 -9.24238,1.87053 -7.125991,0.67352 -14.367411,0.0993 -21.411451,-1.0631 -7.55538,-1.2449 -14.98784,-3.23374 -22.2056,-5.78298 -7.07809,-2.50076 -13.97265,-5.57405 -20.50302,-9.28278 -6.19449,-3.51769 -12.13099,-7.61368 -17.24217,-12.59904 -2.92554,-2.85398 -5.76451,-6.17486 -7.31818,-10.00132 -0.73066,-1.79896 -1.16006,-3.84032 -0.7197,-5.76624 0.45595,-1.99288 1.91785,-3.56906 3.55982,-4.70026 0.37746,1.07406 0.81839,2.03328 1.8561,2.62947 1.37071,0.78722 3.14601,0.57598 4.29395,-0.51078 0.78895,-0.74624 1.4544,-1.66275 2.15967,-2.4846 1.9594,-2.28029 3.91765,-4.56059 5.8759,-6.84088 1.83704,-2.13947 0.55175,-5.42746 -2.15159,-5.93766 -1.25472,-0.23605 -2.50827,-0.4721 -3.7624,-0.70873 -1.87457,-0.35263 -3.74913,-0.70584 -5.62427,-1.05906 -1.15602,-0.21758 -2.53597,-0.66371 -3.71161,-0.40746 -1.53866,0.33417 -2.71142,1.67256 -2.84185,3.24239 -0.0479,0.58061 0.0629,1.13063 0.25394,1.67487 0.075,0.21239 0.44556,0.87438 0.38092,1.0833 -0.0479,0.15468 -0.8334,0.47095 -0.99269,0.56618 -0.31859,0.19738 -0.63775,0.39188 -0.9494,0.59965 -0.70585,0.4698 -1.3863,0.97884 -2.03328,1.5277 -1.26221,1.07118 -2.3836,2.29761 -3.31858,3.66429 -3.10503,4.58309 -3.51191,10.20216 -1.83416,15.39126 2.01077,6.21641 6.37455,11.50536 11.05519,15.93089 5.36166,5.07079 11.51228,9.29317 17.91396,12.93668 13.13578,7.47689 27.67403,12.76757 42.49854,15.67522 7.0931,1.39149 14.33683,2.23239 21.57363,2.15216 6.884751,-0.0768 14.028051,-0.91823 20.366241,-3.76355 4.67544,-2.09907 8.89436,-5.48979 10.86992,-10.33664 1.87053,-4.58541 1.39381,-9.63195 -0.45421,-14.1429 -2.8886,-7.04808 -8.4892,-12.8149 -14.29758,-17.56825 0,0 12.74391,10.43071 0,0 z"
         inkscape:connector-curvature="0" />
      <path
         id="path6"
         d="m 58.034689,365.85625 c -2.43036,-0.84436 -4.81511,-1.74874 -7.15658,-2.69757 l -7.02211,38.60571 c -0.24759,1.36148 0.46229,2.71662 1.7222,3.28914 0.40227,0.18238 0.82704,0.27068 1.2472,0.27068 0.89804,0 1.7753,-0.40111 2.36283,-1.13928 l 26.58324,-33.36813 c -5.82858,-1.23682 -11.78758,-2.89438 -17.73678,-4.96055 z"
         inkscape:connector-curvature="0" />
      <path
         id="path8"
         d="m 41.298679,334.57911 15.47726,-3.84839 -3.0202,16.60384 c 3.05656,1.33032 6.20949,2.57117 9.43226,3.69083 7.99575,2.77837 16.12424,4.74932 23.72061,5.81068 l 34.022611,-42.7092 c 0.80569,-1.01115 0.87668,-2.42458 0.17891,-3.51249 -0.69949,-1.08792 -2.0125,-1.61081 -3.26951,-1.29857 l -21.352011,5.30972 22.758501,-43.14091 c 0.49346,-0.93612 0.46172,-2.06213 -0.0854,-2.96825 -0.54483,-0.90554 -1.52713,-1.46017 -2.58503,-1.46017 H 51.766919 c -1.4596,0 -2.70969,1.04348 -2.97056,2.47883 l -11.19659,61.57314 c -0.18353,1.00885 0.15756,2.04136 0.90497,2.74258 0.74797,0.70181 1.80068,0.97422 2.79395,0.72836 z"
         inkscape:connector-curvature="0" />
      <path
         id="path10"
         d="m 150.03657,269.02484 c -0.44036,-1.18315 -1.56983,-1.96864 -2.83147,-1.96864 h -16.94147 c -1.11504,0 -2.13832,0.6135 -2.66294,1.59696 l -14.43378,27.01551 c -0.68507,1.28183 -0.35899,2.87013 0.77568,3.77971 0.5529,0.44209 1.22008,0.66199 1.88783,0.66199 0.70297,0 1.40477,-0.24414 1.97095,-0.73125 l 31.37352,-27.01551 c 0.95691,-0.82358 1.30031,-2.15505 0.86168,-3.33877 z"
         inkscape:connector-curvature="0" />
    </g>
    <use
       x="0"
       y="0"
       xlink:href="#g3077"
       id="use3129"
       transform="matrix(0.99502782,0,0,0.99502782,301.02862,5.1333138)"
       width="600"
       height="1052.3622" />
    <use
       x="0"
       y="0"
       xlink:href="#use3129"
       id="use3131"
       transform="translate(296.80312,3.3891678e-6)"
       width="600"
       height="1052.3622" />
    <use
       x="0"
       y="0"
       xlink:href="#g3077"
       id="use3133"
       transform="matrix(0.99502782,0,0,0.99502782,151.02862,-249.86669)"
       width="600"
       height="1052.3622" />
    <use
       x="0"
       y="0"
       xlink:href="#use3129"
       id="use3135"
       transform="translate(150,-255)"
       width="600"
       height="1052.3622" />
    <use
       x="0"
       y="0"
       xlink:href="#use3131"
       id="use3137"
       transform="translate(150.48701,-255)"
       width="600"
       height="1052.3622" />
    <use
       x="0"
       y="0"
       xlink:href="#g3077"
       id="use3139"
       transform="translate(151.25874,259.95487)"
       width="600"
       height="1052.3622" />
    <use
       x="0"
       y="0"
       xlink:href="#use3129"
       id="use3141"
       transform="translate(150.17475,259.95487)"
       width="600"
       height="1052.3622" />
    <use
       x="0"
       y="0"
       xlink:href="#use3131"
       id="use3143"
       transform="translate(151.25874,259.95487)"
       width="600"
       height="1052.3622" />
  </g>
</svg>
