<?xml version="1.0" encoding="utf-8"?>
<!DOCTYPE svg PUBLIC "-//W3C//DTD SVG 1.1//EN" "http://www.w3.org/Graphics/SVG/1.1/DTD/svg11.dtd">
<svg version="1.1" xmlns="http://www.w3.org/2000/svg" xmlns:xlink="http://www.w3.org/1999/xlink" x="0px" y="0px"
	 width="62px" height="60px" viewBox="27.072 30.519 250 240" enable-background="new 27.072 30.519 250 240"
	 xml:space="preserve">
	<path d="M218.535,130.242c-3.203,4.02-6.405,8.04-9.608,12.06c-0.224,0.281-0.446,0.562-0.672,0.84
		c-0.396,0.501,0.742,0.957,1.105,1.264c2.472,2.087,4.862,4.275,7.127,6.585c3.735,3.812,7.226,7.985,9.796,12.683
		c1.854,3.389,3.332,7.244,3.169,11.169c-0.137,3.279-1.61,6.158-3.958,8.415c-2.917,2.804-6.716,4.603-10.5,5.915
		c-5.156,1.788-10.593,2.727-16.014,3.241c-12.347,1.167-24.894,0.172-37.099-1.842c-13.091-2.157-25.969-5.603-38.475-10.02
		c-12.264-4.333-24.21-9.658-35.525-16.084c-10.733-6.095-21.019-13.192-29.875-21.83c-5.069-4.945-9.988-10.699-12.68-17.329
		c-1.266-3.117-2.01-6.654-1.247-9.991c0.79-3.453,3.323-6.184,6.168-8.144c0.654,1.861,1.418,3.523,3.216,4.556
		c2.375,1.364,5.451,0.998,7.44-0.885c1.367-1.293,2.52-2.881,3.742-4.305c3.395-3.951,6.788-7.902,10.181-11.853
		c3.183-3.707,0.956-9.404-3.728-10.288c-2.174-0.409-4.346-0.818-6.519-1.228c-3.248-0.611-6.496-1.223-9.745-1.835
		c-2.003-0.377-4.394-1.15-6.431-0.706c-2.666,0.579-4.698,2.898-4.924,5.618c-0.083,1.006,0.109,1.959,0.44,2.902
		c0.13,0.368,0.772,1.515,0.66,1.877c-0.083,0.268-1.444,0.816-1.72,0.981c-0.552,0.342-1.105,0.679-1.645,1.039
		c-1.223,0.814-2.402,1.696-3.523,2.647c-2.187,1.856-4.13,3.981-5.75,6.349c-5.38,7.941-6.085,17.677-3.178,26.668
		c3.484,10.771,11.045,19.935,19.155,27.603c9.29,8.786,19.947,16.102,31.039,22.415c22.76,12.955,47.95,22.122,73.636,27.16
		c12.29,2.411,24.841,3.868,37.38,3.729c11.929-0.133,24.306-1.591,35.288-6.521c8.101-3.637,15.411-9.512,18.834-17.91
		c3.241-7.945,2.415-16.689-0.787-24.505C238.303,148.47,228.599,138.478,218.535,130.242
		C218.535,130.242,240.616,148.315,218.535,130.242z"/>
	<path d="M117.337,201.707c-4.211-1.463-8.343-3.03-12.4-4.674L92.77,263.924c-0.429,2.359,0.801,4.707,2.984,5.699
		c0.697,0.316,1.433,0.469,2.161,0.469c1.556,0,3.076-0.695,4.094-1.974l46.06-57.816
		C137.97,208.159,127.645,205.287,117.337,201.707z"/>
	<path d="M88.339,147.514l26.817-6.668l-5.233,28.769c5.296,2.305,10.759,4.455,16.343,6.395c13.854,4.814,27.938,8.229,41.1,10.068
		l58.95-74.001c1.396-1.752,1.519-4.201,0.31-6.086c-1.212-1.885-3.487-2.791-5.665-2.25l-36.996,9.2l39.433-74.749
		c0.855-1.622,0.8-3.573-0.148-5.143c-0.944-1.569-2.646-2.53-4.479-2.53H106.477c-2.529,0-4.695,1.808-5.147,4.295L81.93,141.5
		c-0.318,1.748,0.273,3.537,1.568,4.752C84.794,147.468,86.618,147.94,88.339,147.514z"/>
	<path d="M276.746,33.93c-0.763-2.05-2.72-3.411-4.906-3.411h-29.354c-1.932,0-3.705,1.063-4.614,2.767l-25.009,46.809
		c-1.187,2.221-0.622,4.973,1.344,6.549c0.958,0.766,2.114,1.147,3.271,1.147c1.218,0,2.434-0.423,3.415-1.267l54.36-46.809
		C276.911,38.288,277.506,35.981,276.746,33.93z"/>
</svg>
